<mxfile host="app.diagrams.net" modified="2024-04-25T12:34:22.274Z" agent="Mozilla/5.0 (Windows NT 10.0; Win64; x64) AppleWebKit/537.36 (KHTML, like Gecko) Chrome/119.0.0.0 Safari/537.36 Edg/119.0.0.0" version="24.3.0" etag="ITUeq7V_0XHwDiiNrXUV" type="github">
  <diagram name="第 1 页" id="7-k96jfnMAiJ8e-T-u9u">
    <mxGraphModel>
      <root>
        <mxCell id="0" />
        <mxCell id="1" parent="0" />
      </root>
    </mxGraphModel>
  </diagram>
</mxfile>
